<svg width="40" height="40" viewBox="0 0 40 40" fill="none" xmlns="http://www.w3.org/2000/svg">
<path d="M9 21H32" stroke="white" stroke-width="2.2" stroke-linecap="round"/>
<path d="M9 26H32" stroke="white" stroke-width="2.2" stroke-linecap="round"/>
<path d="M9 31H32" stroke="white" stroke-width="2.2" stroke-linecap="round"/>
<rect x="6" y="19" width="29" height="17" rx="3" fill="#79747E"/>
<path d="M9 22.5H32" stroke="white" stroke-width="2" stroke-linecap="round"/>
<path d="M9 27.5H32" stroke="white" stroke-width="2" stroke-linecap="round"/>
<path d="M9 32.5H32" stroke="white" stroke-width="2" stroke-linecap="round"/>
<circle cx="12.5" cy="10.5" r="6.5" fill="#79747E"/>
<path d="M10.5137 11.6777C11.2051 11.3965 11.8672 11.2559 12.5 11.2559C13.1328 11.2559 13.7891 11.3965 14.4688 11.6777C15.1602 11.9473 15.5059 12.3047 15.5059 12.75V13.5059H9.49414V12.75C9.49414 12.3047 9.83398 11.9473 10.5137 11.6777ZM13.5547 10.0605C13.2617 10.3535 12.9102 10.5 12.5 10.5C12.0898 10.5 11.7383 10.3535 11.4453 10.0605C11.1523 9.76758 11.0059 9.41602 11.0059 9.00586C11.0059 8.5957 11.1523 8.24414 11.4453 7.95117C11.7383 7.64648 12.0898 7.49414 12.5 7.49414C12.9102 7.49414 13.2617 7.64648 13.5547 7.95117C13.8477 8.24414 13.9941 8.5957 13.9941 9.00586C13.9941 9.41602 13.8477 9.76758 13.5547 10.0605Z" fill="white"/>
</svg>
