<svg width="40" height="40" viewBox="0 0 40 40" fill="none" xmlns="http://www.w3.org/2000/svg">
<circle cx="20" cy="20" r="16" fill="#CAC4D0"/>
<path d="M14.7031 23.1406C16.5469 22.3906 18.3125 22.0156 20 22.0156C21.6875 22.0156 23.4375 22.3906 25.25 23.1406C27.0938 23.8594 28.0156 24.8125 28.0156 26V28.0156H11.9844V26C11.9844 24.8125 12.8906 23.8594 14.7031 23.1406ZM22.8125 18.8281C22.0312 19.6094 21.0938 20 20 20C18.9062 20 17.9688 19.6094 17.1875 18.8281C16.4062 18.0469 16.0156 17.1094 16.0156 16.0156C16.0156 14.9219 16.4062 13.9844 17.1875 13.2031C17.9688 12.3906 18.9062 11.9844 20 11.9844C21.0938 11.9844 22.0312 12.3906 22.8125 13.2031C23.5938 13.9844 23.9844 14.9219 23.9844 16.0156C23.9844 17.1094 23.5938 18.0469 22.8125 18.8281Z" fill="#211F26"/>
</svg>
